<svg width="63" height="81" viewBox="0 0 63 81" fill="none" xmlns="http://www.w3.org/2000/svg">
<path d="M0.0194289 78.0428C0.0197501 71.8283 0.0793774 65.6895 0.00171785 59.5523C-0.0636338 54.3883 1.73933 49.9264 4.77768 45.8798C7.87059 41.7606 11.8114 38.5901 16.098 35.8007C22.9743 31.3259 30.3977 27.9148 37.8399 24.5354C41.6473 22.8065 45.3969 20.9633 48.7704 18.4596C53.1159 15.2344 56.4902 11.2661 58.1161 5.99455C58.5735 4.51167 58.8019 2.98438 58.9775 1.44915C59.1033 0.348255 59.6895 -0.0509439 61.1753 0.00512231C62.1603 0.0422896 62.6546 0.556329 62.6547 1.58664C62.6558 10.432 62.7444 19.2786 62.6124 28.122C62.5413 32.8844 60.6824 37.089 57.7047 40.7989C54.7784 44.4447 50.9162 46.842 46.8587 48.9856C41.1202 52.0173 34.9697 54.0657 28.9744 56.4847C24.7201 58.2011 20.4219 59.8258 16.453 62.166C13.2509 64.054 10.3878 66.3535 8.09284 69.3077C5.84237 72.2047 4.25858 75.3999 3.71204 79.0677C3.5258 80.3175 2.86539 80.7036 1.32166 80.5724C0.445312 80.4979 0.0247375 79.931 0.0190606 78.8154C0.0178799 78.5833 0.0191219 78.3512 0.0194289 78.0428ZM57.1641 16.0445C54.6205 19.188 51.5202 21.6789 48.0978 23.7959C43.8532 26.4215 39.2732 28.376 34.7649 30.474C28.2166 33.5213 21.7317 36.6866 15.8353 40.9118C12.5471 43.268 9.57949 45.9695 7.288 49.3353C5.35418 52.1757 4.08389 55.2769 3.96835 58.7573C3.87941 61.4359 4.02367 64.119 3.86063 66.7981C3.83996 67.1377 3.84727 67.4941 4.07756 67.8559C4.21207 67.6993 4.30281 67.6095 4.37531 67.5068C7.09179 63.6601 10.6492 60.7718 14.7143 58.4732C19.8921 55.5454 25.4417 53.4528 30.9588 51.2898C35.9707 49.3249 41.0441 47.4999 45.7914 44.9234C48.9111 43.2302 51.8239 41.2509 54.1837 38.5501C56.9219 35.4162 58.5499 31.7913 58.6651 27.6194C58.7832 23.3424 58.7072 19.0599 58.709 14.7798C58.7091 14.6257 58.7902 14.4062 58.4785 14.3236C58.0691 14.8583 57.649 15.4069 57.1641 16.0445Z" fill="#8371BF"/>
<path d="M26.1048 9.90408C29.0982 11.3222 31.6145 13.3341 34.1023 15.3868C35.7342 16.7334 37.2504 18.2053 38.7699 19.6753C39.2556 20.1452 39.2323 20.397 38.6277 20.6735C37.9251 20.9948 37.2248 21.3292 36.5564 21.7149C35.9526 22.0633 35.5311 21.9976 35.0021 21.4984C32.1688 18.8244 29.2599 16.2322 25.8794 14.2491C23.9756 13.1322 21.9508 12.3133 19.7138 12.1623C15.4148 11.8722 12.2932 14.4556 11.0901 18.2425C10.7353 19.3596 10.5884 20.4977 10.583 21.6661C10.5625 26.0737 10.5219 30.4813 10.5081 34.889C10.5066 35.3514 10.3561 35.6586 9.99103 35.9305C9.16453 36.5458 8.36596 37.1985 7.54777 37.8253C7.3321 37.9905 7.12119 38.2778 6.80826 38.1272C6.49343 37.9757 6.58897 37.6317 6.58862 37.3606C6.58182 32.1267 6.55331 26.8925 6.59372 21.6589C6.60951 19.6144 6.97434 17.61 7.78372 15.7093C9.90243 10.7338 14.5906 7.84231 19.9784 8.21471C22.1098 8.36202 24.1299 8.94962 26.1048 9.90408Z" fill="#8371BF"/>
<path d="M23.9275 62.2724C25.0657 61.4215 26.4054 61.0842 27.6313 60.5023C27.8729 60.3877 28.0573 60.5406 28.2396 60.7142C30.8191 63.1715 33.5465 65.4519 36.5184 67.4199C38.7814 68.9184 41.1401 70.2548 43.8476 70.7843C46.3296 71.2697 48.6632 71.0279 50.6547 69.2465C52.5066 67.5901 53.139 65.4499 53.1472 63.0694C53.1619 58.7907 53.1676 54.5117 53.1223 50.2334C53.1129 49.352 53.3937 48.7928 54.1429 48.3491C55.0639 47.8037 55.9292 47.1645 56.7877 46.5867C57.1766 46.8432 57.0766 47.1519 57.0769 47.4187C57.0816 52.8834 57.1568 58.3495 57.0571 63.8124C56.9669 68.7529 54.2451 72.9273 49.3682 74.4538C46.8971 75.2272 44.3899 75.1595 41.9092 74.4019C38.7433 73.435 35.9184 71.8079 33.2176 69.932C30.122 67.782 27.2686 65.3284 24.372 62.9284C24.1759 62.7659 23.961 62.6089 23.9275 62.2724Z" fill="#8371BF"/>
</svg>
